<?xml version="1.0" encoding="UTF-8" standalone="no"?>
<svg
   width="24"
   height="24"
   viewBox="0 0 24 24"
   fill="currentColor"
   class="icon icon-tabler icons-tabler-filled icon-tabler-message"
   version="1.1"
   id="svg2"
   sodipodi:docname="reply-fill.svg"
   inkscape:version="1.4 (e7c3feb100, 2024-10-09)"
   xmlns:inkscape="http://www.inkscape.org/namespaces/inkscape"
   xmlns:sodipodi="http://sodipodi.sourceforge.net/DTD/sodipodi-0.dtd"
   xmlns="http://www.w3.org/2000/svg"
   xmlns:svg="http://www.w3.org/2000/svg">
  <defs
     id="defs2" />
  <sodipodi:namedview
     id="namedview2"
     pagecolor="#ffffff"
     bordercolor="#000000"
     borderopacity="0.25"
     inkscape:showpageshadow="2"
     inkscape:pageopacity="0.0"
     inkscape:pagecheckerboard="0"
     inkscape:deskcolor="#d1d1d1"
     inkscape:zoom="23.041667"
     inkscape:cx="11.9783"
     inkscape:cy="12"
     inkscape:window-width="1192"
     inkscape:window-height="758"
     inkscape:window-x="0"
     inkscape:window-y="0"
     inkscape:window-maximized="1"
     inkscape:current-layer="svg2" />
  <path
     stroke="none"
     d="M0 0h24v24H0z"
     fill="none"
     id="path1" />
  <path
     d="M18 3a4 4 0 0 1 4 4v8a4 4 0 0 1 -4 4h-4.724l-4.762 2.857a1 1 0 0 1 -1.508 -.743l-.006 -.114v-2h-1a4 4 0 0 1 -3.995 -3.8l-.005 -.2v-8a4 4 0 0 1 4 -4zm-4 9h-6a1 1 0 0 0 0 2h6a1 1 0 0 0 0 -2m2 -4h-8a1 1 0 1 0 0 2h8a1 1 0 0 0 0 -2"
     id="path2"
     style="fill:#ffffff" />
  <rect
     style="fill:#ffffff;stroke-width:0"
     id="rect2"
     width="13.627486"
     height="8.9837255"
     x="5.7721519"
     y="6.6835442" />
</svg>
